Coordinates
version=1
nRows=20
nColumns=34
inDegrees=yes

Units are S.I. units (second, meters, Newtons, ...)
If the header above contains a line with 'inDegrees', this indicates whether rotational values are in degrees (yes) or radians (no).

endheader
time	pelvis_tilt	pelvis_list	pelvis_rotation	pelvis_tx	pelvis_ty	pelvis_tz	hip_flexion_r	hip_adduction_r	hip_rotation_r	knee_angle_r	ankle_angle_r	subtalar_angle_r	mtp_angle_r	hip_flexion_l	hip_adduction_l	hip_rotation_l	knee_angle_l	ankle_angle_l	subtalar_angle_l	mtp_angle_l	lumbar_extension	lumbar_bending	lumbar_rotation	arm_flex_r	arm_add_r	arm_rot_r	elbow_flex_r	pro_sup_r	arm_flex_l	arm_add_l	arm_rot_l	elbow_flex_l	pro_sup_l
      1.38333330	      0.59146150	      0.26891665	      0.47531155	      1.61928698	      0.88279014	     -0.03105566	     -3.42613829	     -5.87806729	     -3.85549604	      1.32785037	      1.02604964	    -19.96208846	      0.00000000	     -1.98275046	     -3.54488060	      7.79902523	      1.42837323	      4.40990960	     -6.17687318	      0.00000000	     -7.68818547	     -1.16850424	      1.91654079	      3.14074332	     -5.27487806	     25.08676190	     86.32343850	     75.32244296	     11.66231049	     -7.90806070	     37.26860212	     58.84255727	     73.64351948
      1.40000000	      0.60615091	      0.24018315	      0.49024416	      1.61919203	      0.88389502	     -0.03106512	     -3.38902280	     -5.87286826	     -3.86141764	      1.32423322	      1.01907674	    -19.96419030	      0.00000000	     -2.00053520	     -3.51032720	      7.80478726	      1.42755883	      4.40874402	     -6.17459606	      0.00000000	     -7.68792248	     -1.17139599	      1.91889198	      3.13926161	     -5.26763969	     25.08212722	     86.32104058	     75.31990344	     11.66544720	     -7.91208425	     37.26514530	     58.84438010	     73.64096034
      1.41666670	      0.48789190	      0.28932648	      0.63842004	      1.61867327	      0.88322927	     -0.03162347	     -3.05811919	     -5.92977338	     -4.15682894	      1.63162277	      0.51469992	    -20.52361045	      0.00000000	     -1.88228469	     -3.45057415	      8.17581744	      1.30156720	      4.30873653	     -6.17267404	      0.00000000	     -7.62860175	     -1.39655033	      1.92894975	      2.91496470	     -4.63638856	     23.98172238	     85.91547615	     74.75692947	     11.61832816	     -8.14998783	     36.97480168	     59.34657363	     73.10234083
      1.43333330	      0.51181442	      0.26137922	      0.64956155	      1.61795133	      0.88231317	     -0.03269494	     -3.03228748	     -5.91422016	     -4.16016768	      1.62583423	      0.51159972	    -20.52457488	      0.00000000	     -1.88543076	     -3.42798101	      8.17713096	      1.29298639	      4.31243003	     -6.17245660	      0.00000000	     -7.63080915	     -1.40430836	      1.93973780	      2.91881629	     -4.63140151	     23.98332578	     85.91685971	     74.75558628	     11.61279952	     -8.15752813	     36.97406402	     59.34443832	     73.10063717
      1.45000000	      0.48487576	      0.20265353	      0.72337847	      1.61701822	      0.88258746	     -0.03326728	     -2.92433266	     -5.84180180	     -4.26853035	      1.68817245	      0.45660043	    -20.55756609	      0.00000000	     -1.84949704	     -3.47574562	      8.21024790	      1.17582063	      4.35959320	     -6.17100272	      0.00000000	     -7.71953838	     -1.46262218	      2.09340780	      3.03306971	     -4.59289926	     23.97943767	     85.93052953	     74.73937262	     11.58288293	     -8.26228893	     36.95097512	     59.32057435	     73.08099497
      1.46666670	      0.46770013	      0.14774792	      0.69976868	      1.61611372	      0.88133499	     -0.03358154	     -2.65725521	     -5.82055750	     -4.59008109	      1.97400341	      0.26682309	    -20.69834314	      0.00000000	     -1.78154860	     -3.49545035	      8.28152033	      1.13740062	      4.39241855	     -6.14721259	      0.00000000	     -7.79932225	     -1.44652830	      2.20243241	      3.20950037	     -4.60273000	     23.94104492	     85.93102513	     74.65439706	     11.74842809	     -8.29586670	     36.89441415	     59.41377954	     72.99115430
      1.48333330	      0.49351407	      0.12451031	      0.70945487	      1.61573017	      0.88005780	     -0.03377981	     -2.64164282	     -5.82249143	     -4.59455723	      1.96454819	      0.26797364	    -20.70243034	      0.00000000	     -1.76449866	     -3.48381294	      8.28042866	      1.12957094	      4.39289878	     -6.14777806	      0.00000000	     -7.80581553	     -1.45233272	      2.21262374	      3.21553884	     -4.60101297	     23.94074787	     85.93135510	     74.65286575	     11.74217568	     -8.30206072	     36.89416691	     59.41206098	     72.98947636
      1.50000000	      0.44555674	      0.10493513	      0.79811705	      1.61509715	      0.88045504	     -0.03351804	     -2.58581203	     -5.79740632	     -4.67148635	      1.91921991	      0.28556524	    -20.75698369	      0.00000000	     -1.64268220	     -3.50863959	      8.27183736	      1.11695926	      4.38976305	     -6.15647805	      0.00000000	     -7.90866952	     -1.51167723	      2.34427157	      3.33448663	     -4.59288564	     23.92427616	     85.93949249	     74.63850001	     11.68734565	     -8.36113993	     36.88786460	     59.39780983	     72.97402942
      1.51666670	      0.39709477	      0.07649692	      0.78077609	      1.61479763	      0.87930070	     -0.03283383	     -2.51421410	     -5.75550915	     -4.81921075	      1.84272965	      0.32198657	    -20.85869201	      0.00000000	     -1.48552642	     -3.55283964	      8.29213976	      1.23579073	      4.36535654	     -6.15574715	      0.00000000	     -7.95202641	     -1.60446303	      2.46372502	      3.49967098	     -4.58478947	     23.90349568	     85.96912386	     74.61237950	     11.70939894	     -8.37715036	     36.86986863	     59.43975126	     72.94607196
      1.53333330	      0.37398391	      0.07900006	      0.89554609	      1.61457053	      0.87900951	     -0.03238341	     -2.52370618	     -5.73922995	     -4.85316606	      1.83054904	      0.33481843	    -20.89123611	      0.00000000	     -1.36918805	     -3.57563432	      8.27651038	      1.29590051	      4.36803660	     -6.17554493	      0.00000000	     -7.94211644	     -1.63825640	      2.53931555	      3.55349896	     -4.56838149	     23.91616880	     85.99131024	     74.59752250	     11.71281459	     -8.37652908	     36.86229101	     59.47786230	     72.92902762
      1.55000000	      0.30676209	      0.05551268	      0.85942277	      1.61415587	      0.87945725	     -0.03163656	     -2.50953256	     -5.67298808	     -4.98940848	      1.66455062	      0.40024888	    -20.98792380	      0.00000000	     -1.20350057	     -3.64845959	      8.28953697	      1.44472616	      4.36000990	     -6.18911615	      0.00000000	     -7.93004645	     -1.74999904	      2.65220026	      3.62534603	     -4.52136208	     23.95787694	     86.04525585	     74.57747763	     11.70579745	     -8.36241491	     36.85716648	     59.54119408	     72.90381440
      1.56666670	      0.18191248	      0.05862482	      0.98907984	      1.61388221	      0.87928017	     -0.03107593	     -2.55101983	     -5.61662769	     -5.18418510	      1.38403266	      0.45447720	    -21.12308159	      0.00000000	     -0.88884718	     -3.69009792	      8.24321577	      1.70342391	      4.37658594	     -6.26216201	      0.00000000	     -7.80854663	     -1.81870133	      2.80392658	      3.60846278	     -4.50494038	     24.07515873	     86.14971572	     74.53251590	     11.71250525	     -8.32279461	     36.83725938	     59.70611182	     72.84566802
      1.58333330	      0.17685387	      0.08008980	      0.98612321	      1.61361142	      0.88038279	     -0.03067577	     -2.56674137	     -5.61137386	     -5.18847879	      1.38449239	      0.45410696	    -21.12541084	      0.00000000	     -0.86461174	     -3.70437449	      8.24319252	      1.69787224	      4.37762485	     -6.26388399	      0.00000000	     -7.80740938	     -1.82027055	      2.80753087	      3.60720063	     -4.50708992	     24.07702679	     86.15160921	     74.53146895	     11.70753393	     -8.32213492	     36.83780737	     59.70816005	     72.84437180
      1.60000000	      0.05862046	      0.07426418	      1.07401127	      1.61383404	      0.88070421	     -0.03016342	     -2.63077318	     -5.51721632	     -5.35228800	      1.06168660	      0.50004295	    -21.23267891	      0.00000000	     -0.65986193	     -3.77169458	      8.20882958	      1.77534683	      4.35075618	     -6.28861132	      0.00000000	     -7.81670658	     -1.97666753	      2.97375161	      3.61146531	     -4.51208840	     24.13678312	     86.19110291	     74.51078093	     11.56416797	     -8.32735253	     36.84288665	     59.73672115	     72.81589399
      1.61666670	     -0.26820616	      0.09478302	      1.30236970	      1.61459843	      0.88006736	     -0.03012538	     -2.66806850	     -5.45368891	     -5.68193377	      0.42525712	     -0.00819574	    -21.40965217	      0.00000000	     -0.14161173	     -3.76526872	      8.44804338	      2.05785966	      4.40038681	     -6.32671270	      0.00000000	     -7.29448214	     -2.02705113	      2.96845831	      3.27235179	     -4.75017128	     24.38446862	     86.48023781	     74.26271790	     11.38033126	     -8.26588236	     36.73890669	     60.07048019	     72.51762882
      1.63333330	     -0.26971740	      0.12133789	      1.30055860	      1.61455174	      0.87927618	     -0.02972445	     -2.68280588	     -5.43677615	     -5.68281092	      0.42400928	     -0.00478967	    -21.41291834	      0.00000000	     -0.12685886	     -3.77015657	      8.44633746	      2.05421355	      4.39911959	     -6.32743315	      0.00000000	     -7.29615728	     -2.02959994	      2.96975504	      3.27253190	     -4.75238457	     24.38469760	     86.47975693	     74.26151346	     11.37624369	     -8.26317299	     36.73965181	     60.07070190	     72.51632457
      1.65000000	     -0.33364084	      0.15789144	      1.40463078	      1.61444057	      0.87858238	     -0.02929137	     -2.86194284	     -5.38419401	     -5.70761237	      0.00000000	      0.13810658	    -21.55397090	      0.00000000	      0.01526578	     -3.76630535	      8.42875321	      2.15215767	      4.33966247	     -6.31544207	      0.00000000	     -7.22467595	     -2.20621051	      3.03344831	      3.25774769	     -4.82235003	     24.41493291	     86.46813937	     74.21504642	     11.28298311	     -8.16951392	     36.74581437	     60.10871277	     72.46377237
      1.66666670	     -0.32857719	      0.18628432	      1.41473894	      1.61394859	      0.87762266	     -0.02886575	     -2.87222109	     -5.36740070	     -5.70400991	      0.00000000	      0.13694740	    -21.55344541	      0.00000000	      0.02471843	     -3.76587695	      8.42949215	      2.14840578	      4.34073178	     -6.31520624	      0.00000000	     -7.21988432	     -2.20478752	      3.03578171	      3.25652398	     -4.82593075	     24.41556307	     86.46750976	     74.21362889	     11.28043301	     -8.16730363	     36.74575011	     60.11003092	     72.46221551
      1.68333330	     -0.31844926	      0.21172823	      1.43674645	      1.61327557	      0.87758211	     -0.02842630	     -2.87910929	     -5.35139703	     -5.69715641	      0.00000000	      0.13814604	    -21.55373198	      0.00000000	      0.03808663	     -3.76069259	      8.43163226	      2.14446968	      4.34232499	     -6.31398046	      0.00000000	     -7.21101028	     -2.20613209	      3.04165741	      3.25759679	     -4.83285096	     24.41554949	     86.46656334	     74.21170090	     11.27489692	     -8.16245811	     36.74632803	     60.11263610	     72.46015122
      1.70000000	     -0.32103602	      0.25290112	      1.58499319	      1.61288616	      0.87783937	     -0.02820930	     -2.92729159	     -5.36397452	     -5.64405988	      0.00000000	      0.16683685	    -21.57059632	      0.00000000	      0.09997140	     -3.72718096	      8.46905283	      2.16811284	      4.34391165	     -6.28814423	      0.00000000	     -7.15491221	     -2.23401069	      3.08475418	      3.28011765	     -4.91046208	     24.40470366	     86.44814776	     74.19527715	     11.24373664	     -8.11434021	     36.75048919	     60.13836942	     72.44324951
